<?xml version="1.0" encoding="iso-8859-1"?>
<!-- Generator: Adobe Illustrator 19.0.0, SVG Export Plug-In . SVG Version: 6.00 Build 0)  -->
<svg version="1.1" id="Capa_1" xmlns="http://www.w3.org/2000/svg" xmlns:xlink="http://www.w3.org/1999/xlink" x="0px" y="0px"
	 viewBox="0 0 512 512" style="enable-background:new 0 0 512 512;" xml:space="preserve">
<circle style="fill:#FFDD17;" cx="256" cy="256" r="256"/>
<path style="fill:#FFB81A;" d="M267.76,511.693c128.377-6.167,231.944-106.894,242.593-234.047L331.193,97.758l-25.039,77.667
	l-26.19-26.918l6.426,47.711l-75.134-75.881l-22.139,21.704l96.923,97.642l-2.084,6.66L216,177.659l-5.027,6.39l-56.993-57.594
	l-33.916,32.647l56.88,57.334l-0.399,0.677l83.545,84.273l-28.524-0.163l-76.916-77.708l-20.513,20.43l56.838,57.045l-125.206,1.49
	l72.944,73.484l-0.19,5.928L267.76,511.693z"/>
<g>
	<path style="fill:#0AEA4F;" d="M163.362,169.078h-19.153c-18.893,0-34.209-15.316-34.209-34.209v-19.153h19.153
		c18.893,0,34.209,15.316,34.209,34.209V169.078z"/>
	<path style="fill:#0AEA4F;" d="M176.545,217.114h14.162c13.969,0,25.293-11.324,25.293-25.293v-14.162h-14.162
		c-13.969,0-25.293,11.324-25.293,25.293V217.114z"/>
</g>
<g>
	<circle style="fill:#FFFFFF;" cx="200.22" cy="131.22" r="15.502"/>
	<circle style="fill:#FFFFFF;" cx="144.37" cy="233.71" r="14.476"/>
</g>
<path style="fill:#0F53B7;" d="M142.35,312.509H90.017c-18.962,0-34.333-15.372-34.333-34.333v-2.333h86.667L142.35,312.509
	L142.35,312.509z"/>
<path style="fill:#27488F;" d="M369.65,312.509h52.333c18.962,0,34.333-15.372,34.333-34.333v-2.333H369.65V312.509z"/>
<path style="fill:#FF5B00;" d="M403.961,250.526c0,40.188-32.579,72.768-72.768,72.768s-72.768-32.579-72.768-72.768
	s72.768-152.768,72.768-152.768S403.961,210.337,403.961,250.526z"/>
<path style="fill:#E2330A;" d="M331.193,97.758c0,0-0.018,0.027-0.026,0.041v225.494c0.009,0,0.018,0,0.026,0
	c40.188,0,72.768-32.579,72.768-72.768S331.193,97.758,331.193,97.758z"/>
<path style="fill:#FF5B00;" d="M338.961,272.364c0,32.583-26.414,58.996-58.996,58.996s-58.996-26.414-58.996-58.996
	s58.996-123.856,58.996-123.856S338.961,239.781,338.961,272.364z"/>
<path style="fill:#FF8040;" d="M378.79,275.697c0,26.287-21.31,47.597-47.597,47.597s-47.597-21.31-47.597-47.597
	s47.597-99.924,47.597-99.924S378.79,249.41,378.79,275.697z"/>
<path style="fill:#FF5B00;" d="M331.193,175.773c0,0-0.013,0.02-0.026,0.041v147.479c0.009,0,0.018,0,0.026,0
	c26.287,0,47.597-21.31,47.597-47.596C378.79,249.41,331.193,175.773,331.193,175.773z"/>
<path style="fill:#1E67F7;" d="M94.234,271.275v5.082c0,81.674,66.21,147.885,147.885,147.885h27.762
	c81.675,0,147.885-66.21,147.885-147.885v-5.082H94.234z"/>
<path style="fill:#0053BF;" d="M255.571,271.275v152.967h14.31c81.675,0,147.885-66.21,147.885-147.885v-5.082H255.571z"/>
<g>
</g>
<g>
</g>
<g>
</g>
<g>
</g>
<g>
</g>
<g>
</g>
<g>
</g>
<g>
</g>
<g>
</g>
<g>
</g>
<g>
</g>
<g>
</g>
<g>
</g>
<g>
</g>
<g>
</g>
</svg>
